<svg xmlns="http://www.w3.org/2000/svg" width="24" height="24" viewBox="0 0 24 24">
  <path style="stroke:none;fill-rule:nonzero;fill:#c4c5e4;fill-opacity:1" d="M7.426 21.469c-.067 0-.114-.04-.164-.063-.082-.043-.16-.09-.239-.133a11 11 0 0 1-.453-.27q-.199-.129-.398-.265c-.176-.125-.352-.25-.516-.386q-.17-.134-.336-.274c-.07-.058-.136-.125-.207-.187a9 9 0 0 1-.43-.418 7 7 0 0 1-.316-.344q-.058-.07-.117-.133a10 10 0 0 1-.793-1.05c-.098-.157-.195-.31-.289-.47a10 10 0 0 1-.676-1.398 10 10 0 0 1-.234-.656 8 8 0 0 1-.192-.7 11 11 0 0 1-.109-.495c-.023-.11-.035-.22-.055-.332a8 8 0 0 1-.043-.297c-.007-.067-.007-.133-.02-.2-.015-.082-.007-.168-.026-.253q-.005-.025-.004-.055c-.004-.063.004-.13-.016-.192-.004-.015 0-.035 0-.054q.001-.13-.004-.254c0-.035.004-.07-.008-.106q-.005-.032-.004-.062v-.168c0-.043-.004-.086.012-.129.004-.016 0-.035 0-.055.004-.07.004-.136.004-.207 0-.054-.004-.105.012-.16.008-.023 0-.05.004-.078 0-.055-.004-.105.011-.16q.005-.012.004-.024c0-.105.016-.21.031-.316.012-.102.02-.203.036-.309.007-.07.02-.14.03-.21q.03-.157.063-.313.025-.129.055-.258a9 9 0 0 1 .336-1.16c.05-.133.098-.266.152-.398q.063-.152.133-.309.116-.284.262-.555l.223-.406q.206-.357.44-.695c.106-.153.212-.309.333-.457.074-.09.144-.188.223-.282.078-.09.16-.18.234-.27.074-.089.164-.167.238-.257.074-.086.157-.168.239-.25q.139-.136.285-.266.129-.116.258-.226.146-.123.293-.234.176-.142.359-.278a8 8 0 0 1 .512-.344q.153-.095.312-.191.066-.041.137-.082.119-.066.238-.125c.059-.035.121-.062.176-.094.058-.035.117-.054.176-.082.156-.082.316-.148.48-.219a10.5 10.5 0 0 1 1.629-.53q.276-.06.55-.114.183-.031.364-.055c.106-.008.211-.027.316-.043q.117-.01.239-.015c.031-.004.066-.004.101-.012.024-.008.047-.004.07-.004.067-.004.133.004.2-.016.02-.003.039 0 .055 0h.89c.031 0 .063-.003.094.008l.023.004c.106-.004.207.012.309.02q.134.007.262.027c.054.004.11-.004.16.016.125.007.25.03.379.054q.317.051.629.125.35.078.695.184a10.4 10.4 0 0 1 1.848.766q.24.127.468.273.281.169.551.355a9 9 0 0 1 .496.372l.203.16q.076.067.157.133l.226.199.047.047.457.457c.098.097.192.203.281.308.07.086.145.168.215.254q.124.152.242.309.247.322.465.668c.094.144.184.297.274.449.129.226.246.46.359.695.059.117.105.239.16.356.063.144.121.293.176.437q.093.259.176.524c.05.168.101.336.144.504.028.101.051.207.075.308q.04.176.074.352c.011.078.027.156.039.234q.024.152.043.3c.008.052.011.102.02.15.003.038.011.073.015.113.008.078.012.164.02.246q-.002.04.007.086l.008.078c.004.07-.008.144.012.215q.005.03.004.054v.84a.4.4 0 0 1-.012.098q-.005.035-.004.078c-.004.062.004.129-.016.191v.016c.008.09-.015.176-.02.262-.003.07-.015.136-.026.203a3 3 0 0 1-.02.176 11 11 0 0 1-.113.64c-.012.078-.032.156-.051.235q-.061.28-.145.554a7 7 0 0 1-.21.645l-.106.285q-.046.112-.094.219a11 11 0 0 1-.687 1.336l-.254.386q-.17.258-.363.504-.154.198-.313.395c-.055.062-.113.12-.164.183-.086.102-.187.192-.273.293-.055.059-.11.121-.172.176-.106.094-.2.2-.309.293-.156.137-.312.277-.48.406q-.392.315-.813.594c-.02.012-.035.031-.066.031-.04-.008-.047-.039-.055-.066-.164-.516-.39-1.008-.578-1.516a2.5 2.5 0 0 1-.133-.476 2 2 0 0 0-.215-.625.9.9 0 0 0-.39-.367 16 16 0 0 0-1.891-.805 8 8 0 0 0-.996-.254q-.035-.004-.074-.02c-.035-.027-.043-.058-.051-.086a4 4 0 0 1-.113-.566c-.016-.16-.04-.316-.032-.477.012-.046.043-.066.075-.085.476-.293.816-.704 1.074-1.192a9 9 0 0 0 .594-1.484c.035-.11.05-.117.148-.063.254.14.52.13.773.024.524-.211.844-.614.973-1.157.117-.496-.21-.828-.562-.91a.76.76 0 0 0-.618.11c-.035.023-.066.05-.113.05-.035-.05-.012-.097-.008-.144.051-.348.121-.691.27-1.016a3 3 0 0 1 .441-.675c.14-.168.293-.329.39-.532.122-.258.142-.508-.015-.761-.117-.196-.097-.301.051-.477a.7.7 0 0 0 .184-.352.66.66 0 0 0-.352-.656c-.11-.047-.105-.047-.07-.156.101-.34.082-.664-.121-.965a.84.84 0 0 0-1.07-.262c-.087.043-.102.04-.126-.05-.136-.528-.48-.883-.941-1.145a2.2 2.2 0 0 0-.84-.273c-.402-.047-.793 0-1.133.246a1.7 1.7 0 0 0-.402.422 5 5 0 0 0-.238.382c-.016.028-.028.063-.063.059-.039-.004-.043-.043-.05-.074a1.23 1.23 0 0 0-1.153-.832c-.582.008-1.004.285-1.285.781-.133.23-.2.477-.219.738-.004.055-.027.074-.082.07-.621-.05-1.09.364-1.117.985a.17.17 0 0 1-.074.133q-.354.24-.438.66c-.09.441.156.918.567 1.105.117.051.117.059.05.168-.199.332-.062.809.282.989q.116.057.238.109c.238.105.398.29.516.516.125.246.183.511.191.793-.066.023-.098-.028-.133-.055a.77.77 0 0 0-1-.012c-.21.172-.281.399-.265.66.023.414.195.762.472 1.059.211.223.477.36.79.375a.6.6 0 0 0 .39-.125c.09-.066.105-.059.121.05.074.427.172.852.32 1.262.282.778.774 1.375 1.52 1.758.039.02.086.035.113.082.035.117.035.235.04.352.003.219 0 .433 0 .66a1.6 1.6 0 0 1-.032.273c-.2.165-.41.297-.625.422-.106.063-.215.121-.324.184-.395.187-.805.332-1.203.5-.317.137-.614.312-.844.574a2 2 0 0 0-.363.637c-.11.281-.137.574-.18.867-.05.363-.098.73-.13 1.094a.15.15 0 0 1-.034.086"/>
  <path style="stroke:none;fill-rule:nonzero;fill:#468686;fill-opacity:1" d="M7.422 21.477a1 1 0 0 0 .02-.137 5 5 0 0 1 .027-.23q.005-.082.015-.165c.032-.226.055-.449.086-.675.032-.211.059-.426.11-.633.078-.301.203-.578.398-.82q.218-.262.512-.43c.23-.137.476-.239.723-.336.19-.074.378-.145.566-.227.082-.035.168-.078.254-.117.012-.004.023-.008.043-.012.023.047-.012.086-.024.13a2 2 0 0 0-.148.675c-.004.418.129.79.383 1.121a1.83 1.83 0 0 0 1.277.711c.695.082 1.3-.121 1.824-.578q.72-.628.918-1.555a1.87 1.87 0 0 0-.062-1.047c-.012-.023-.02-.047-.012-.074.156.04.3.094.45.152.304.118.605.25.902.387.16.074.324.145.484.227.066.031.133.07.191.113.16.11.27.258.344.434q.1.228.14.48c.036.203.102.395.177.586q.168.438.343.871.11.283.203.57a.2.2 0 0 0 .02.043c-.008.032-.031.04-.05.051q-.5.318-1.032.578-.638.306-1.313.524-.598.192-1.214.308-.4.075-.797.121-.244.028-.489.043-.312.016-.629.02a10.6 10.6 0 0 1-1.852-.164 10.3 10.3 0 0 1-2.323-.715q-.21-.095-.414-.195a.3.3 0 0 1-.051-.035"/>
  <path style="stroke:none;fill-rule:nonzero;fill:#292e6e;fill-opacity:1" d="M8.773 10.773c.016-.05 0-.093-.007-.14a1.8 1.8 0 0 0-.145-.57 1.3 1.3 0 0 0-.316-.446 1.3 1.3 0 0 0-.223-.14l-.2-.086c-.394-.172-.5-.63-.378-.942a.8.8 0 0 1 .09-.168c.015-.02.011-.031-.012-.043-.016-.008-.035-.011-.05-.02-.348-.167-.563-.44-.614-.823-.04-.278.043-.532.21-.758a1 1 0 0 1 .259-.235c.043-.027.058-.054.058-.101q0-.346.203-.621a1 1 0 0 1 .641-.383.9.9 0 0 1 .305-.008c.035.004.043 0 .043-.035.008-.11.023-.215.05-.324.083-.317.231-.602.47-.828a1.4 1.4 0 0 1 .796-.391c.508-.066.91.113 1.219.512a.9.9 0 0 1 .172.359c.004.016.004.031.02.04.023-.013.03-.036.042-.056.078-.136.156-.273.25-.402a2 2 0 0 1 .305-.344c.195-.172.426-.277.68-.316.422-.066.824 0 1.21.168q.417.173.727.5c.211.223.363.48.43.781l.015.04q.001.003.008.007l.024-.008c.28-.18.57-.164.855-.015.227.117.356.308.426.546s.055.477-.023.707q-.007.028-.02.055c-.008.024-.004.027.02.04l.007.003a.62.62 0 0 1 .403.453.6.6 0 0 1 .011.293.5.5 0 0 1-.105.223l-.082.098q-.037.045-.067.097a.25.25 0 0 0-.02.258q.037.077.08.148a.66.66 0 0 1 .077.395q-.02.176-.097.336a2 2 0 0 1-.223.332q-.124.143-.242.285-.438.54-.567 1.219a10 10 0 0 0-.082.504.1.1 0 0 1 .004.086c-.035.195-.074.39-.152.578a.5.5 0 0 1-.153.21.214.214 0 0 1-.308-.019.34.34 0 0 1-.086-.289c.012-.172.055-.336.074-.508a2.74 2.74 0 0 0-.195-1.445c-.063-.14-.149-.266-.227-.398-.078-.137-.144-.278-.144-.442 0-.039-.02-.066-.059-.07-.21-.035-.316-.184-.398-.36-.043-.09-.047-.09-.125-.039a1.26 1.26 0 0 1-1.469-.043c-.055-.043-.086-.043-.14 0a1.55 1.55 0 0 1-1.473.301c-.086-.023-.086-.023-.117.055-.176.46-.5.754-.989.851-.058.012-.082.04-.086.102q-.022.559-.05 1.117c-.012.27-.012.543-.043.813a.34.34 0 0 1-.098.215c-.11.097-.235.082-.313-.047a.5.5 0 0 1-.062-.235c-.012-.187-.016-.375-.035-.558 0-.024 0-.043.011-.07"/>
  <path style="stroke:none;fill-rule:nonzero;fill:#efd2e6;fill-opacity:1" d="M8.773 10.77q.018.093.024.19l.02.407a.8.8 0 0 0 .066.278c.058.09.156.109.242.05a.26.26 0 0 0 .09-.105.7.7 0 0 0 .043-.238l.023-.45c.012-.304.028-.613.043-.918l.02-.457q-.001-.032.004-.062c0-.027.007-.031.03-.035l.102-.02c.391-.07.805-.387.946-.863.023-.074.023-.074.101-.05a1.54 1.54 0 0 0 1.524-.313l.043-.04a1.2 1.2 0 0 0 .625.3q.178.03.36.013.175-.023.339-.086.163-.072.297-.184c.023.008.023.028.031.04.012.027.02.054.035.082.024.043.047.09.074.132a.41.41 0 0 0 .356.211c.031.004.031.004.031.036a.7.7 0 0 0 .102.41c.039.074.078.144.125.214.172.278.277.575.328.895.031.219.039.434.023.656a4 4 0 0 1-.074.559.7.7 0 0 0-.012.23.3.3 0 0 0 .079.164.2.2 0 0 0 .261.028.35.35 0 0 0 .11-.117.8.8 0 0 0 .082-.165 3 3 0 0 0 .109-.433c.012-.047.02-.094.031-.149.028-.02.059-.035.082-.054a.8.8 0 0 1 .633-.133c.18.031.328.129.45.27a.7.7 0 0 1 .163.332c.008.039.004.082.016.125a.1.1 0 0 1 0 .039c-.02.144-.043.289-.098.425-.058.145-.14.274-.23.399a1.7 1.7 0 0 1-.3.308 1.5 1.5 0 0 1-.446.239.7.7 0 0 1-.281.047.4.4 0 0 0-.098 0 .65.65 0 0 1-.371-.106c-.063-.039-.063-.043-.086.031q-.06.179-.117.356-.062.187-.137.375l-.16.39c-.004.016-.016.032-.024.051q-.098.2-.203.406l-.047.082c-.078.141-.168.27-.265.399-.04.05-.078.105-.13.152l-.163.164a2.2 2.2 0 0 1-.442.34l-.062.043c-.082.078-.184.113-.281.156-.301.13-.618.204-.95.188a2.2 2.2 0 0 1-.691-.149.14.14 0 0 1-.059-.043c-.054-.027-.101-.054-.152-.078a2.6 2.6 0 0 1-.418-.261 3 3 0 0 1-.45-.418 3 3 0 0 1-.296-.395 3.4 3.4 0 0 1-.27-.535 4 4 0 0 1-.152-.445 7 7 0 0 1-.16-.633c-.016-.094-.031-.188-.055-.277q-.01-.065-.027-.137-.013.006-.02.012a.6.6 0 0 1-.289.148c-.074.016-.156.043-.234.008a.8.8 0 0 1-.25-.051 1.2 1.2 0 0 1-.332-.184 1 1 0 0 1-.145-.125c-.066-.078-.136-.148-.191-.234a2 2 0 0 1-.223-.457 3 3 0 0 1-.066-.273c-.008-.02-.004-.047-.004-.07 0-.028.004-.055-.008-.079q-.005-.012-.004-.023c.02-.106.016-.211.059-.313a.6.6 0 0 1 .14-.226 1 1 0 0 1 .176-.149.8.8 0 0 1 .285-.105 1 1 0 0 1 .11-.016.7.7 0 0 1 .226.031q.181.049.32.172c.028.028.06.047.094.07m2.329 6.356c.007-.02.015-.031.015-.043-.004-.074.02-.145.02-.227.078-.05.164-.046.246-.054.406-.055.8-.149 1.176-.324.16-.075.312-.168.457-.27.03-.02.054-.043.097-.05.012.042.016.085.024.128q.04.245.11.485l.015.027c.05.09.07.183.105.273.094.258.195.52.242.793.079.414-.004.797-.23 1.145a1.48 1.48 0 0 1-1.2.71 1.53 1.53 0 0 1-1.07-.308c-.183-.144-.32-.32-.336-.566a.8.8 0 0 1 .028-.278c.078-.304.172-.609.219-.925.023-.153.054-.305.062-.457.004-.02.004-.04.02-.059"/>
  <path style="stroke:none;fill-rule:nonzero;fill:#fdeeef;fill-opacity:1" d="M11.098 17.121c.011.102-.004.203-.024.305-.02.117-.031.23-.054.344-.024.125-.055.25-.082.375l-.126.468a.3.3 0 0 0-.011.086v.031a.46.46 0 0 0 .015.243.6.6 0 0 0 .137.257c.074.086.156.165.254.227.145.09.293.164.461.2.09.019.184.046.281.038.078.024.156.008.235.004q.257-.017.492-.117a2 2 0 0 0 .215-.11q.098-.058.183-.136.045-.048.09-.09a1.4 1.4 0 0 0 .227-.297 1.6 1.6 0 0 0 .21-.613c.016-.078.012-.152.016-.23.004-.07-.012-.137-.023-.204-.028-.215-.102-.418-.172-.62q-.065-.188-.137-.376c-.008-.031-.023-.058-.02-.097.094.011.192.027.286.046.125.028.25.055.37.09.138.04.274.075.411.125q.017.036.027.07.088.235.106.481a2.3 2.3 0 0 1-.188 1.067 2.9 2.9 0 0 1-.68 1c-.316.3-.687.519-1.117.62-.238.06-.48.075-.722.055a1.9 1.9 0 0 1-.988-.347 1.82 1.82 0 0 1-.782-1.618c.016-.156.051-.312.102-.46.027-.079.058-.153.09-.239q.069-.048.136-.086a7 7 0 0 0 .782-.492"/>
  <path style="stroke:none;fill-rule:nonzero;fill:#f190a7;fill-opacity:1" d="M13.117 16.152a3 3 0 0 1-.3.211q-.224.134-.465.227a4 4 0 0 1-.442.137c-.133.027-.27.058-.406.074-.098.012-.2.031-.297.047h-.062q-.01-.344-.008-.696a.5.5 0 0 0-.012-.101c-.008-.028-.004-.059-.004-.086a.7.7 0 0 0-.016-.149q.129.036.258.082.117.037.246.055c.063.008.125.02.188.027q.056.005.113.004a1.9 1.9 0 0 0 .555-.074q.235-.059.445-.164.08-.041.172-.082c.004.16.02.32.035.488"/>
  <path style="stroke:none;fill-rule:nonzero;fill:#3e4999;fill-opacity:1" d="M13.664 7.012a.33.33 0 0 1 .098-.14c.05-.052.097-.102.16-.134q.109-.052.23-.082a.9.9 0 0 1 .317-.011c.136.011.273.046.402.101q.141.06.27.149.042.023.043-.016a1.05 1.05 0 0 0-.118-.555c-.027-.047-.054-.094-.093-.129-.055-.05-.102-.11-.168-.148a.8.8 0 0 0-.242-.098c-.083-.02-.165-.015-.247-.011-.043 0-.082.015-.125.023-.129.023-.25.074-.367.133l-.062.031q-.024.006-.035-.012-.017-.017-.004-.035a.6.6 0 0 1 .148-.156.8.8 0 0 1 .371-.149.7.7 0 0 1 .153-.011c.132.008.261.035.382.09a.93.93 0 0 1 .52.66c.023.097.015.199.012.3 0 .043-.016.083-.024.125-.008.032-.004.055.027.083q.135.123.258.257a.8.8 0 0 1 .13.184c.03.066.07.133.085.207a1 1 0 0 1 .02.102c.011.054-.008.109-.02.164a.5.5 0 0 1-.074.164c-.024.035-.059.039-.09.011q-.024-.016-.012-.05a.72.72 0 0 0-.086-.559c-.035-.055-.078-.105-.12-.156-.055-.074-.126-.13-.196-.188a1.7 1.7 0 0 0-.39-.242 1 1 0 0 0-.29-.086c-.047-.004-.093-.012-.144-.012-.07 0-.14.016-.211.032a1.1 1.1 0 0 0-.43.199l-.012.012q-.041.03-.066-.024zM9.004 5.96a1 1 0 0 1 .3-.137l.036-.015c.012-.004.015-.016.012-.028-.036-.215.039-.402.168-.57a1 1 0 0 1 .39-.285c.086-.035.172-.055.262-.074q.029-.005.062-.004h.176a.7.7 0 0 1 .3.07c.024.008.028.031.009.05q-.018.025-.047.02a.3.3 0 0 1-.086-.02q-.045-.009-.09-.007h-.191a.8.8 0 0 0-.473.16.8.8 0 0 0-.27.332 3 3 0 0 0-.117.297c-.008.027 0 .04.032.043h.109c.148-.012.277.043.402.113.032.02.059.055.086.082q.025.017.02.051c-.012.024-.04.043-.063.04a.1.1 0 0 1-.054-.016c-.059-.024-.122-.04-.18-.06a.8.8 0 0 0-.371-.03.56.56 0 0 0-.27.093c-.039.028-.082.051-.117.086a.76.76 0 0 0-.207.371c-.02.079-.031.16-.047.243-.004.015-.008.035-.023.046-.028.028-.07.024-.086-.007a.3.3 0 0 1-.035-.125v-.176q.001-.025.007-.055a.76.76 0 0 1 .293-.441z"/>
  <path style="stroke:none;fill-rule:nonzero;fill:#3e4998;fill-opacity:1" d="M10.867 7.348c-.082.12-.164.234-.246.351a.1.1 0 0 1-.02.024c-.011.007-.039 0-.039-.016a.3.3 0 0 1 0-.094 1.5 1.5 0 0 1 .083-.234.7.7 0 0 1 .093-.137c.043-.054.078-.117.14-.152.017-.008.013-.024 0-.031a.7.7 0 0 0-.26-.13.5.5 0 0 0-.364.04q-.105.054-.203.11a.2.2 0 0 1-.059.023c-.039.011-.062-.012-.055-.051a.26.26 0 0 1 .06-.114.55.55 0 0 1 .265-.152.5.5 0 0 1 .129-.02c.011.005.03-.003.046-.007l.032-.004c.14.016.273.047.386.14q.048.036.086.07c.032.032.043.036.086.013a1.2 1.2 0 0 1 .465-.2q.094-.022.188-.027.21-.007.41.05c.094.032.183.067.27.122.097.058.183.137.261.219q.03.035.059.078.011.017-.008.035-.018.013-.035-.004a2 2 0 0 0-.258-.176 1.4 1.4 0 0 0-.46-.164 1 1 0 0 0-.286-.012 1 1 0 0 0-.309.079 1.1 1.1 0 0 0-.386.289c-.024.023-.043.05-.07.082m2.316-2.914q.332.002.613.144.166.081.285.215c.008.012.02.02.023.031a.03.03 0 0 1 0 .024q-.005.016-.023.015a.06.06 0 0 1-.043-.02c-.047-.05-.11-.085-.168-.124a1.07 1.07 0 0 0-.883-.14 1.3 1.3 0 0 0-.484.253c-.086.066-.16.148-.238.223-.016.015-.028.035-.04.05-.007.008-.019.012-.027.008-.015-.008-.023-.02-.015-.035.011-.027.027-.055.039-.086a.96.96 0 0 1 .351-.383c.121-.082.258-.129.399-.156.066-.012.132-.027.21-.02m2.965 4.13c.02-.07.043-.137.051-.208l.008-.078V8.07q.001-.022.008-.039c0-.011.023-.015.031-.008l.024.036a.4.4 0 0 1 .043.144c.011.043.015.094.023.14v.024a.95.95 0 0 1-.156.445.9.9 0 0 1-.328.286.9.9 0 0 1-.278.097c-.062.012-.125.004-.191.004-.012 0-.02-.011-.02-.023 0-.008 0-.02.012-.028.008-.003.02-.011.027-.011a.9.9 0 0 0 .547-.254c.035-.04.074-.082.106-.13a.8.8 0 0 0 .093-.19"/>
  <path style="stroke:none;fill-rule:nonzero;fill:#3e4999;fill-opacity:1" d="m8.355 8.89.09.063q.025.012.032.035c.007.028-.004.051-.032.051a.4.4 0 0 1-.148-.027.8.8 0 0 1-.168-.086c-.047-.024-.074-.067-.113-.102a.4.4 0 0 1-.098-.144.44.44 0 0 1-.016-.301.3.3 0 0 1 .16-.191c.032-.02.06-.012.083.011q.03.037 0 .078l-.012.012c-.102.102-.102.215-.051.34a.4.4 0 0 0 .156.184c.035.027.075.05.117.078"/>
  <path style="stroke:none;fill-rule:nonzero;fill:#3e4998;fill-opacity:1" d="M8.328 5.762c.047 0 .09-.004.133 0h.031c.028.011.04.05.016.074-.012.012-.031.016-.047.02a.7.7 0 0 0-.246.097.52.52 0 0 0-.23.328.6.6 0 0 0-.005.293c0 .008.004.02 0 .031 0 .012-.007.024-.023.028q-.017.005-.027-.008a.4.4 0 0 1-.07-.105.52.52 0 0 1 .015-.41.6.6 0 0 1 .352-.325c.03-.012.062-.015.101-.023"/>
  <path style="stroke:none;fill-rule:nonzero;fill:#f18fa6;fill-opacity:1" d="M12.21 13.473a.8.8 0 0 1-.269.207.6.6 0 0 1-.359.035c-.133-.031-.23-.184-.223-.29v-.007a1.5 1.5 0 0 1 .036-.379l.093-.46q.04-.217.075-.438c.011-.059.011-.121.023-.18.023-.149.008-.293.016-.441a1 1 0 0 1 .046-.282.34.34 0 0 1 .188-.203c.082-.043.156-.023.219.035q.064.059.105.13c.05.09.082.183.113.28.047.141.079.29.106.434.016.09.02.18.039.266.016.078.004.156.027.23a.2.2 0 0 1 .004.055v.23a1.7 1.7 0 0 1-.082.489 1.2 1.2 0 0 1-.156.289"/>
  <path style="stroke:none;fill-rule:nonzero;fill:#2b306f;fill-opacity:1" d="M12.707 10.082a1.22 1.22 0 0 1 .848-.129q.25.061.437.238a.3.3 0 0 1 .07.102.14.14 0 0 1-.027.148.36.36 0 0 1-.187.102.8.8 0 0 1-.254.012 4 4 0 0 0-.383-.035 2 2 0 0 0-.332.015c-.047.004-.09.012-.137.016a.3.3 0 0 1-.16-.031c-.09-.047-.121-.13-.078-.223a.4.4 0 0 1 .133-.164zm-2.219 1.008c-.117.02-.226.043-.34.058a.7.7 0 0 1-.285-.011.4.4 0 0 1-.125-.067q-.088-.069-.043-.18a.4.4 0 0 1 .078-.109.94.94 0 0 1 .516-.265c.203-.036.399-.016.594.043a.7.7 0 0 1 .215.105c.058.043.109.09.144.156.047.09.024.176-.062.227a.2.2 0 0 1-.125.039.6.6 0 0 1-.121 0c-.149-.02-.293-.008-.446.004"/>
  <path style="stroke:none;fill-rule:nonzero;fill:#ef8fa6;fill-opacity:1" d="M9.91 11.828c-.004-.05-.012-.098 0-.144a.6.6 0 0 1 .25-.356.77.77 0 0 1 .82-.02c.125.07.211.18.258.313.012.02.008.047.012.078-.066.04-.129 0-.203.004-.207.008-.41-.015-.61.02a1 1 0 0 0-.277.062c-.086.012-.16.055-.25.043"/>
  <path style="stroke:none;fill-rule:nonzero;fill:#f090a6;fill-opacity:1" d="M12.676 11.754a.2.2 0 0 1 .011-.113.67.67 0 0 1 .211-.278.75.75 0 0 1 .383-.144.7.7 0 0 1 .32.039.66.66 0 0 1 .274.176.5.5 0 0 1 .14.28c.005.028.028.06.005.098-.086.028-.153-.019-.235-.03a2.5 2.5 0 0 0-.875-.048c-.082.004-.152.04-.234.02"/>
  <path style="stroke:none;fill-rule:nonzero;fill:#f191a8;fill-opacity:1" d="M15.5 11.95a1.8 1.8 0 0 0-.172.476c-.008.027-.012.058-.023.086-.024.05-.078.062-.125.015-.012-.011-.012-.027-.012-.043a.8.8 0 0 1 .031-.246 1.48 1.48 0 0 1 .766-.914c.11-.062.23-.07.355-.058a.2.2 0 0 1 .117.046c.028.02.028.051-.003.07a.07.07 0 0 1-.055.009c-.117-.036-.223 0-.324.039a.7.7 0 0 0-.172.105c-.012.008-.024.016-.02.031 0 .016.016.016.032.02a.36.36 0 0 1 .168.086.36.36 0 0 1 .128.297.5.5 0 0 1-.09.277.22.22 0 0 1-.128.086.1.1 0 0 1-.055-.004c-.047-.02-.055-.043-.031-.086.02-.035.043-.062.066-.09.102-.109.086-.324-.086-.394-.055-.024-.113-.028-.172-.04-.011-.003-.023.009-.03.016-.032.032-.063.059-.087.098s-.05.074-.078.117m-6.937-.176c-.02-.093-.055-.171-.09-.253l-.04-.06c-.015-.023-.023-.023-.046-.015a.42.42 0 0 0-.219.242q-.01.025-.008.055c0 .043-.004.086 0 .13 0 .042-.012.081-.023.124-.012.035-.043.047-.075.024a.18.18 0 0 1-.078-.118c-.011-.047-.023-.097-.004-.148.012-.027.012-.055.02-.082.04-.14.121-.25.25-.317.016-.007.027-.015.043-.023q.038-.017.008-.047c-.067-.05-.13-.101-.2-.148a1.5 1.5 0 0 1-.234-.203c-.012-.016-.027-.028-.02-.047a.07.07 0 0 1 .051-.04.4.4 0 0 1 .172.028.8.8 0 0 1 .227.148c.09.086.176.176.246.282q.137.2.191.433c.02.067.024.137.032.203a.8.8 0 0 1-.055.329.2.2 0 0 1-.02.035q-.008.011-.027.011-.018 0-.023-.02c-.004-.023-.012-.046-.016-.07 0-.066-.008-.128-.016-.195a2 2 0 0 0-.046-.258"/>
  <path style="stroke:none;fill-rule:nonzero;fill:#fdf7f5;fill-opacity:1" d="M12.668 11.754c.074-.016.14-.027.219-.04.031.02.027.048.031.071a.38.38 0 0 0 .262.328c.152.055.304.04.441-.074.086-.07.117-.172.164-.273.074.011.145.03.223.046.023.141-.043.247-.125.344-.106.13-.25.188-.41.223q-.024.005-.047.004h-.114a.65.65 0 0 1-.351-.086.58.58 0 0 1-.29-.371c-.01-.055-.026-.11-.003-.172"/>
  <path style="stroke:none;fill-rule:nonzero;fill:#fdf8f6;fill-opacity:1" d="M11.031 11.688c.07-.016.137.011.211.015a.25.25 0 0 1 .016.192.56.56 0 0 1-.238.343.66.66 0 0 1-.325.125.77.77 0 0 1-.406-.047.8.8 0 0 1-.23-.152.57.57 0 0 1-.157-.332c.055-.012.102-.035.157-.047.023-.004.043-.012.074-.012.035.016.035.043.047.067.078.203.242.3.457.281a.43.43 0 0 0 .375-.36c.008-.023.008-.046.02-.073"/>
  <path style="stroke:none;fill-rule:nonzero;fill:#221730;fill-opacity:1" d="M12.797 14.188c-.27.199-.559.328-.879.398-.219.047-.434.05-.652.035a.2.2 0 0 1-.051-.008c-.047-.011-.07-.047-.067-.093 0-.043.028-.07.07-.067.036 0 .071.008.106.008a2.02 2.02 0 0 0 1.668-.676c.008-.008.016-.02.028-.027.027-.028.062-.028.093-.008.032.027.047.07.028.102a.3.3 0 0 1-.04.058 2.3 2.3 0 0 1-.304.277"/>
  <path style="stroke:none;fill-rule:nonzero;fill:#f192a8;fill-opacity:1" d="M13.633 13.29c-.02.05-.059.058-.098.065-.023.008-.062-.015-.074-.039-.012-.027-.008-.074.016-.093.007-.012.023-.02.039-.028.062-.03.109-.004.117.07zm-2.73-.223c-.051-.02-.071-.054-.071-.101a.09.09 0 0 1 .098-.086q.034.004.05.031c.02.04.016.082.004.121-.004.012-.015.016-.023.02a.2.2 0 0 1-.059.015m-.504-.168q-.023-.016-.035-.03c-.023-.036-.015-.075.02-.106.027-.028.078-.035.105-.02.028.02.043.063.032.094a.15.15 0 0 1-.051.059c-.02.011-.043.023-.07.003"/>
  <path style="stroke:none;fill-rule:nonzero;fill:#f194aa;fill-opacity:1" d="M13.41 12.828a.1.1 0 0 1-.05-.039.08.08 0 0 1 .007-.101q.052-.047.106-.004c.03.023.043.066.02.097-.016.028-.04.051-.083.047m-2.86.645c-.038-.02-.054-.043-.054-.078 0-.04.012-.06.047-.075.031-.011.066-.008.09.016q.034.039.015.09c-.02.043-.05.05-.097.047m3.5-.578c-.035.023-.063.015-.09-.004-.012-.008-.024-.02-.024-.04 0-.015-.003-.035 0-.054.004-.031.036-.055.067-.059.035 0 .074.028.074.059.004.035.012.07-.027.098m-1.13.218c-.026.016-.054.028-.081.016a.1.1 0 0 1-.047-.059c-.02-.043.023-.101.07-.105.035 0 .078.039.082.074a.14.14 0 0 1-.023.074m-2.84.04q0 .04-.027.062c-.012.012-.024.015-.043.02-.051.003-.078-.02-.09-.07a.09.09 0 0 1 .055-.087c.035-.015.082.008.101.043.004.008 0 .016.004.031"/>
  <path style="stroke:none;fill-rule:nonzero;fill:#2c3070;fill-opacity:1" d="M11.027 11.68a.42.42 0 0 1-.308.445.45.45 0 0 1-.567-.3l-.011-.044a.06.06 0 0 1 .046-.035c.141-.035.286-.062.434-.066.133-.004.266-.008.406 0"/>
  <path style="stroke:none;fill-rule:nonzero;fill:#2d3170;fill-opacity:1" d="M13.781 11.762a.4.4 0 0 1-.148.297c-.242.203-.64.105-.727-.22a.3.3 0 0 1-.011-.116 2.4 2.4 0 0 1 .476-.024c.137.008.274.024.41.063"/>
</svg>
